<?xml version="1.0" encoding="UTF-8"?>
<svg width="200px" height="200px" viewBox="0 0 200 200" version="1.1" xmlns="http://www.w3.org/2000/svg">
    <title>Restaurant Logo</title>
    <g id="Logo" stroke="none" stroke-width="1" fill="none" fill-rule="evenodd">
        <circle id="Background" fill="#4A90E2" cx="100" cy="100" r="90"></circle>
        <path d="M100,20 C144.18,20 180,55.82 180,100 C180,144.18 144.18,180 100,180 C55.82,180 20,144.18 20,100 C20,55.82 55.82,20 100,20 Z M100,40 C66.86,40 40,66.86 40,100 C40,133.14 66.86,160 100,160 C133.14,160 160,133.14 160,100 C160,66.86 133.14,40 100,40 Z" id="Ring" fill="#FFFFFF"></path>
        <g id="Fork" transform="translate(65, 60)">
            <rect fill="#FFFFFF" x="0" y="0" width="10" height="80" rx="5"></rect>
            <rect fill="#FFFFFF" x="15" y="20" width="10" height="60" rx="5"></rect>
            <rect fill="#FFFFFF" x="30" y="0" width="10" height="80" rx="5"></rect>
        </g>
        <g id="Knife" transform="translate(110, 60)">
            <path d="M5,0 C7.76,0 10,2.24 10,5 L10,60 C10,62.76 7.76,65 5,65 C2.24,65 0,62.76 0,60 L0,5 C0,2.24 2.24,0 5,0 Z" fill="#FFFFFF"></path>
            <path d="M10,65 L25,80 L20,85 L5,70 L10,65 Z" fill="#FFFFFF"></path>
        </g>
    </g>
</svg> 